<svg id="visual" viewBox="0 0 900 600" width="900" height="600" xmlns="http://www.w3.org/2000/svg" xmlns:xlink="http://www.w3.org/1999/xlink" version="1.1"><g stroke-width="1" stroke-linejoin="bevel"><path d="M481 283L387 216L396 301Z" fill="#952653" stroke="#952653"></path><path d="M481 283L508 195L387 216Z" fill="#31254b" stroke="#31254b"></path><path d="M387 216L315 291L396 301Z" fill="#6d2759" stroke="#6d2759"></path><path d="M315 291L391 390L396 301Z" fill="#081729" stroke="#081729"></path><path d="M396 301L487 398L481 283Z" fill="#00101c" stroke="#00101c"></path><path d="M302 100L298 192L387 216Z" fill="#822658" stroke="#822658"></path><path d="M387 216L298 192L315 291Z" fill="#952653" stroke="#952653"></path><path d="M391 390L487 398L396 301Z" fill="#1f2141" stroke="#1f2141"></path><path d="M481 283L597 210L508 195Z" fill="#00101c" stroke="#00101c"></path><path d="M604 298L597 210L481 283Z" fill="#1f2141" stroke="#1f2141"></path><path d="M500 84L406 82L508 195Z" fill="#822658" stroke="#822658"></path><path d="M508 195L406 82L387 216Z" fill="#111d36" stroke="#111d36"></path><path d="M487 398L604 298L481 283Z" fill="#952653" stroke="#952653"></path><path d="M609 98L500 84L508 195Z" fill="#111d36" stroke="#111d36"></path><path d="M315 291L294 387L391 390Z" fill="#081729" stroke="#081729"></path><path d="M510 493L608 417L487 398Z" fill="#081729" stroke="#081729"></path><path d="M190 291L294 387L315 291Z" fill="#952653" stroke="#952653"></path><path d="M406 82L302 100L387 216Z" fill="#31254b" stroke="#31254b"></path><path d="M302 100L213 186L298 192Z" fill="#111d36" stroke="#111d36"></path><path d="M298 192L190 291L315 291Z" fill="#952653" stroke="#952653"></path><path d="M701 185L609 98L597 210Z" fill="#00101c" stroke="#00101c"></path><path d="M597 210L609 98L508 195Z" fill="#111d36" stroke="#111d36"></path><path d="M510 493L487 398L396 518Z" fill="#a6294b" stroke="#a6294b"></path><path d="M487 398L608 417L604 298Z" fill="#6d2759" stroke="#6d2759"></path><path d="M604 298L684 316L597 210Z" fill="#a6294b" stroke="#a6294b"></path><path d="M213 186L190 291L298 192Z" fill="#442753" stroke="#442753"></path><path d="M396 518L487 398L391 390Z" fill="#00101c" stroke="#00101c"></path><path d="M406 82L305 0L302 100Z" fill="#822658" stroke="#822658"></path><path d="M302 100L199 107L213 186Z" fill="#592858" stroke="#592858"></path><path d="M505 0L390 0L406 82Z" fill="#6d2759" stroke="#6d2759"></path><path d="M505 0L406 82L500 84Z" fill="#6d2759" stroke="#6d2759"></path><path d="M608 417L684 316L604 298Z" fill="#822658" stroke="#822658"></path><path d="M190 291L215 403L294 387Z" fill="#111d36" stroke="#111d36"></path><path d="M302 494L396 518L391 390Z" fill="#442753" stroke="#442753"></path><path d="M594 0L505 0L500 84Z" fill="#952653" stroke="#952653"></path><path d="M302 494L391 390L294 387Z" fill="#a6294b" stroke="#a6294b"></path><path d="M215 403L302 494L294 387Z" fill="#111d36" stroke="#111d36"></path><path d="M196 0L199 107L302 100Z" fill="#1f2141" stroke="#1f2141"></path><path d="M113 190L116 315L190 291Z" fill="#952653" stroke="#952653"></path><path d="M684 316L701 185L597 210Z" fill="#31254b" stroke="#31254b"></path><path d="M390 0L305 0L406 82Z" fill="#a6294b" stroke="#a6294b"></path><path d="M510 493L593 496L608 417Z" fill="#442753" stroke="#442753"></path><path d="M608 417L698 410L684 316Z" fill="#31254b" stroke="#31254b"></path><path d="M593 600L593 496L510 493Z" fill="#592858" stroke="#592858"></path><path d="M684 0L594 0L609 98Z" fill="#442753" stroke="#442753"></path><path d="M609 98L594 0L500 84Z" fill="#a6294b" stroke="#a6294b"></path><path d="M704 507L698 410L608 417Z" fill="#31254b" stroke="#31254b"></path><path d="M799 316L797 186L701 185Z" fill="#a6294b" stroke="#a6294b"></path><path d="M701 185L701 86L609 98Z" fill="#6d2759" stroke="#6d2759"></path><path d="M190 291L116 315L215 403Z" fill="#00101c" stroke="#00101c"></path><path d="M215 403L195 506L302 494Z" fill="#111d36" stroke="#111d36"></path><path d="M113 190L190 291L213 186Z" fill="#822658" stroke="#822658"></path><path d="M109 101L113 190L199 107Z" fill="#592858" stroke="#592858"></path><path d="M199 107L113 190L213 186Z" fill="#081729" stroke="#081729"></path><path d="M310 600L403 600L396 518Z" fill="#1f2141" stroke="#1f2141"></path><path d="M96 416L195 506L215 403Z" fill="#6d2759" stroke="#6d2759"></path><path d="M305 0L196 0L302 100Z" fill="#a6294b" stroke="#a6294b"></path><path d="M310 600L396 518L302 494Z" fill="#592858" stroke="#592858"></path><path d="M396 518L506 600L510 493Z" fill="#1f2141" stroke="#1f2141"></path><path d="M403 600L506 600L396 518Z" fill="#6d2759" stroke="#6d2759"></path><path d="M593 496L704 507L608 417Z" fill="#31254b" stroke="#31254b"></path><path d="M196 0L109 101L199 107Z" fill="#00101c" stroke="#00101c"></path><path d="M0 397L96 416L116 315Z" fill="#822658" stroke="#822658"></path><path d="M701 86L684 0L609 98Z" fill="#442753" stroke="#442753"></path><path d="M216 600L310 600L302 494Z" fill="#081729" stroke="#081729"></path><path d="M0 202L116 315L113 190Z" fill="#081729" stroke="#081729"></path><path d="M116 315L96 416L215 403Z" fill="#952653" stroke="#952653"></path><path d="M593 600L704 507L593 496Z" fill="#442753" stroke="#442753"></path><path d="M799 316L701 185L684 316Z" fill="#6d2759" stroke="#6d2759"></path><path d="M701 185L790 88L701 86Z" fill="#592858" stroke="#592858"></path><path d="M799 316L684 316L781 407Z" fill="#111d36" stroke="#111d36"></path><path d="M701 86L790 88L684 0Z" fill="#6d2759" stroke="#6d2759"></path><path d="M781 407L684 316L698 410Z" fill="#00101c" stroke="#00101c"></path><path d="M506 600L593 600L510 493Z" fill="#1f2141" stroke="#1f2141"></path><path d="M704 507L781 407L698 410Z" fill="#00101c" stroke="#00101c"></path><path d="M797 186L790 88L701 185Z" fill="#822658" stroke="#822658"></path><path d="M99 600L216 600L195 506Z" fill="#081729" stroke="#081729"></path><path d="M195 506L216 600L302 494Z" fill="#822658" stroke="#822658"></path><path d="M96 416L104 497L195 506Z" fill="#442753" stroke="#442753"></path><path d="M196 0L82 0L109 101Z" fill="#111d36" stroke="#111d36"></path><path d="M109 101L0 202L113 190Z" fill="#1f2141" stroke="#1f2141"></path><path d="M0 82L0 202L109 101Z" fill="#a6294b" stroke="#a6294b"></path><path d="M96 416L0 485L104 497Z" fill="#31254b" stroke="#31254b"></path><path d="M0 202L0 308L116 315Z" fill="#442753" stroke="#442753"></path><path d="M714 600L786 513L704 507Z" fill="#081729" stroke="#081729"></path><path d="M704 507L786 513L781 407Z" fill="#31254b" stroke="#31254b"></path><path d="M900 311L900 210L799 316Z" fill="#111d36" stroke="#111d36"></path><path d="M593 600L714 600L704 507Z" fill="#822658" stroke="#822658"></path><path d="M0 308L0 397L116 315Z" fill="#822658" stroke="#822658"></path><path d="M900 82L815 0L790 88Z" fill="#952653" stroke="#952653"></path><path d="M790 88L815 0L684 0Z" fill="#31254b" stroke="#31254b"></path><path d="M900 82L790 88L797 186Z" fill="#952653" stroke="#952653"></path><path d="M82 0L0 82L109 101Z" fill="#442753" stroke="#442753"></path><path d="M900 311L799 316L900 396Z" fill="#081729" stroke="#081729"></path><path d="M799 316L900 210L797 186Z" fill="#592858" stroke="#592858"></path><path d="M900 396L799 316L781 407Z" fill="#00101c" stroke="#00101c"></path><path d="M104 497L99 600L195 506Z" fill="#1f2141" stroke="#1f2141"></path><path d="M0 600L99 600L104 497Z" fill="#111d36" stroke="#111d36"></path><path d="M0 397L0 485L96 416Z" fill="#822658" stroke="#822658"></path><path d="M900 512L781 407L786 513Z" fill="#822658" stroke="#822658"></path><path d="M900 512L900 396L781 407Z" fill="#1f2141" stroke="#1f2141"></path><path d="M82 0L0 0L0 82Z" fill="#a6294b" stroke="#a6294b"></path><path d="M900 210L900 82L797 186Z" fill="#442753" stroke="#442753"></path><path d="M714 600L794 600L786 513Z" fill="#442753" stroke="#442753"></path><path d="M900 82L900 0L815 0Z" fill="#111d36" stroke="#111d36"></path><path d="M794 600L900 512L786 513Z" fill="#592858" stroke="#592858"></path><path d="M0 485L0 600L104 497Z" fill="#592858" stroke="#592858"></path><path d="M794 600L900 600L900 512Z" fill="#952653" stroke="#952653"></path></g></svg>