<svg id="visual" viewBox="0 0 900 600" width="900" height="600" xmlns="http://www.w3.org/2000/svg" xmlns:xlink="http://www.w3.org/1999/xlink" version="1.1"><rect x="0" y="0" width="900" height="600" fill="#001220"></rect><path d="M0 145L30 162.7C60 180.3 120 215.7 180 214.8C240 214 300 177 360 170.3C420 163.7 480 187.3 540 205.7C600 224 660 237 720 247C780 257 840 264 870 267.5L900 271L900 601L870 601C840 601 780 601 720 601C660 601 600 601 540 601C480 601 420 601 360 601C300 601 240 601 180 601C120 601 60 601 30 601L0 601Z" fill="#c62368"></path><path d="M0 311L30 299.2C60 287.3 120 263.7 180 259.3C240 255 300 270 360 260.5C420 251 480 217 540 214.7C600 212.3 660 241.7 720 242.8C780 244 840 217 870 203.5L900 190L900 601L870 601C840 601 780 601 720 601C660 601 600 601 540 601C480 601 420 601 360 601C300 601 240 601 180 601C120 601 60 601 30 601L0 601Z" fill="#d73b67"></path><path d="M0 311L30 310.3C60 309.7 120 308.3 180 303.2C240 298 300 289 360 288.3C420 287.7 480 295.3 540 305.7C600 316 660 329 720 339.5C780 350 840 358 870 362L900 366L900 601L870 601C840 601 780 601 720 601C660 601 600 601 540 601C480 601 420 601 360 601C300 601 240 601 180 601C120 601 60 601 30 601L0 601Z" fill="#e65067"></path><path d="M0 333L30 341.7C60 350.3 120 367.7 180 373.2C240 378.7 300 372.3 360 371.3C420 370.3 480 374.7 540 376.7C600 378.7 660 378.3 720 373C780 367.7 840 357.3 870 352.2L900 347L900 601L870 601C840 601 780 601 720 601C660 601 600 601 540 601C480 601 420 601 360 601C300 601 240 601 180 601C120 601 60 601 30 601L0 601Z" fill="#f36567"></path><path d="M0 402L30 394.8C60 387.7 120 373.3 180 359.5C240 345.7 300 332.3 360 339C420 345.7 480 372.3 540 374.2C600 376 660 353 720 351.2C780 349.3 840 368.7 870 378.3L900 388L900 601L870 601C840 601 780 601 720 601C660 601 600 601 540 601C480 601 420 601 360 601C300 601 240 601 180 601C120 601 60 601 30 601L0 601Z" fill="#fa7268"></path><path d="M0 409L30 415.8C60 422.7 120 436.3 180 443.5C240 450.7 300 451.3 360 448.8C420 446.3 480 440.7 540 424.7C600 408.7 660 382.3 720 385C780 387.7 840 419.3 870 435.2L900 451L900 601L870 601C840 601 780 601 720 601C660 601 600 601 540 601C480 601 420 601 360 601C300 601 240 601 180 601C120 601 60 601 30 601L0 601Z" fill="#fa7268"></path><path d="M0 405L30 408.5C60 412 120 419 180 431C240 443 300 460 360 464.7C420 469.3 480 461.7 540 463.3C600 465 660 476 720 472.3C780 468.7 840 450.3 870 441.2L900 432L900 601L870 601C840 601 780 601 720 601C660 601 600 601 540 601C480 601 420 601 360 601C300 601 240 601 180 601C120 601 60 601 30 601L0 601Z" fill="#f36567"></path><path d="M0 451L30 453.3C60 455.7 120 460.3 180 468.5C240 476.7 300 488.3 360 491.2C420 494 480 488 540 478.5C600 469 660 456 720 454.2C780 452.3 840 461.7 870 466.3L900 471L900 601L870 601C840 601 780 601 720 601C660 601 600 601 540 601C480 601 420 601 360 601C300 601 240 601 180 601C120 601 60 601 30 601L0 601Z" fill="#e65067"></path><path d="M0 478L30 478.7C60 479.3 120 480.7 180 481.5C240 482.3 300 482.7 360 490C420 497.3 480 511.7 540 517.3C600 523 660 520 720 522.3C780 524.7 840 532.3 870 536.2L900 540L900 601L870 601C840 601 780 601 720 601C660 601 600 601 540 601C480 601 420 601 360 601C300 601 240 601 180 601C120 601 60 601 30 601L0 601Z" fill="#d73b67"></path><path d="M0 581L30 576.8C60 572.7 120 564.3 180 558.5C240 552.7 300 549.3 360 544.7C420 540 480 534 540 530C600 526 660 524 720 526.2C780 528.3 840 534.7 870 537.8L900 541L900 601L870 601C840 601 780 601 720 601C660 601 600 601 540 601C480 601 420 601 360 601C300 601 240 601 180 601C120 601 60 601 30 601L0 601Z" fill="#c62368"></path></svg>